<svg width="46" height="46" viewBox="0 0 46 46" fill="none" xmlns="http://www.w3.org/2000/svg">
<g clip-path="url(#clip0_214_352)">
<rect x="8" y="9" width="30" height="30" fill="#EEAF45"/>
<path d="M27.8139 26.8454L33.2855 29.5071L28.5746 34.2179C19.7474 32.9803 12.7371 25.5958 11.9924 16.7436L16.2572 12.4789L18.9189 17.9504L17.3047 19.5646C17.1381 19.7312 17.0306 19.9478 16.9988 20.1812C16.967 20.4147 17.0125 20.6522 17.1284 20.8573C18.9468 24.0756 21.5743 26.8075 24.7266 28.7576C24.9332 28.8855 25.177 28.9398 25.4183 28.9118C25.6597 28.8837 25.8844 28.775 26.0562 28.6031L27.8139 26.8454ZM46 23C46 35.6823 35.6823 46 23 46C10.3177 46 0 35.6823 0 23C0 10.3177 10.3177 0 23 0C35.6823 0 46 10.3177 46 23ZM36.181 29.0211C36.1525 28.8516 36.084 28.6914 35.9811 28.5538C35.8782 28.4162 35.7439 28.3052 35.5894 28.23L28.0663 24.5704C27.8646 24.4723 27.6374 24.4395 27.4162 24.4767C27.195 24.5138 26.991 24.619 26.8324 24.7776L25.1484 26.4616C22.8451 24.8963 20.8867 22.8571 19.4213 20.4975L20.9869 18.932C21.1455 18.7734 21.2506 18.5693 21.2878 18.3481C21.3249 18.127 21.2921 17.8997 21.1941 17.6981L17.5344 10.1751C17.4593 10.0206 17.3482 9.88629 17.2106 9.78339C17.073 9.6805 16.9128 9.61197 16.7434 9.58352C16.5739 9.55508 16.4001 9.56754 16.2365 9.61986C16.0728 9.67219 15.924 9.76287 15.8025 9.88434L10.1199 15.5669C10.0123 15.6745 9.92874 15.8036 9.87464 15.9458C9.82054 16.088 9.79714 16.2401 9.806 16.392C10.0945 21.344 12.1984 26.1143 15.7301 29.824C19.2548 33.5264 23.9118 35.8707 28.8433 36.4251C29.0043 36.4432 29.1672 36.4248 29.32 36.3713C29.4729 36.3178 29.6117 36.2305 29.7262 36.116L35.8803 29.962C36.0017 29.8404 36.0924 29.6916 36.1447 29.528C36.197 29.3643 36.2094 29.1905 36.181 29.0211Z" fill="white"/>
</g>
<defs>
<clipPath id="clip0_214_352">
<rect width="46" height="46" fill="white"/>
</clipPath>
</defs>
</svg>
