<svg width="46" height="46" viewBox="0 0 46 46" fill="none" xmlns="http://www.w3.org/2000/svg">
<g clip-path="url(#clip0_101_740)">
<path fill-rule="evenodd" clip-rule="evenodd" d="M23 46C10.3177 46 0 35.6823 0 23C0 10.3177 10.3177 0 23 0C35.6823 0 46 10.3177 46 23C46 35.6823 35.6823 46 23 46ZM34.9275 31.0797C35.0638 31.0796 35.1946 31.0253 35.291 30.9289C35.3874 30.8325 35.4417 30.7017 35.4418 30.5654V16.126L23.7397 25.4187C23.5232 25.5907 23.2614 25.6767 22.9999 25.6767C22.7384 25.6767 22.4767 25.5906 22.2601 25.4187L10.5581 16.126V30.5654C10.5582 30.7017 10.6125 30.8325 10.7089 30.9289C10.8053 31.0253 10.9361 31.0796 11.0724 31.0797H34.9275ZM33.1342 14.9203L23 22.968L12.8657 14.9203H33.1342ZM37.8212 15.4346V30.5656C37.8212 32.1611 36.523 33.4592 34.9275 33.4592H11.0724C9.47681 33.4592 8.17884 32.1611 8.17884 30.5656V15.4346C8.17884 13.8391 9.4769 12.541 11.0724 12.541H34.9275C36.523 12.5409 37.8212 13.8391 37.8212 15.4346Z" fill="#EEAF45"/>
</g>
<defs>
<clipPath id="clip0_101_740">
<rect width="46" height="46" fill="white"/>
</clipPath>
</defs>
</svg>
