<svg width="44" height="44" viewBox="0 0 44 44" fill="none" xmlns="http://www.w3.org/2000/svg">
<circle cx="22.0078" cy="22" r="22" fill="white"/>
<path d="M15.1875 32.0236H27.8517C30.1618 32.0236 32.0314 30.154 32.0314 27.8438V15.1797C32.0314 12.8774 30.154 11 27.8517 11H15.1875C12.8852 11 11.0078 12.8774 11.0078 15.1797V27.8438C11.0078 30.1461 12.8852 32.0236 15.1875 32.0236Z" stroke="#1E1E1E" stroke-width="2"/>
<path d="M25.1174 25.1108L25.118 25.1102C26.0775 24.1508 26.6063 22.8733 26.6063 21.5157C26.6063 20.158 26.0775 18.8805 25.118 17.9211C24.1586 16.9617 22.8812 16.4328 21.5235 16.4328C20.1658 16.4328 18.8883 16.9617 17.9289 17.9211C16.9695 18.8805 16.4406 20.158 16.4406 21.5157C16.4406 22.8733 16.9695 24.1508 17.9289 25.1102C18.8883 26.0696 20.1658 26.5985 21.5235 26.5985C22.8816 26.5985 24.1508 26.0693 25.1174 25.1108ZM17.8797 21.5157C17.8797 19.5014 19.5165 17.8719 21.5235 17.8719C23.5295 17.8719 25.1597 19.5083 25.1672 21.5161C25.167 23.5302 23.5303 25.1594 21.5235 25.1594C19.5092 25.1594 17.8797 23.5227 17.8797 21.5157Z" fill="#1E1E1E" stroke="#1E1E1E" stroke-width="0.4"/>
<path d="M27.5078 17C28.3362 17 29.0078 16.3284 29.0078 15.5C29.0078 14.6716 28.3362 14 27.5078 14C26.6794 14 26.0078 14.6716 26.0078 15.5C26.0078 16.3284 26.6794 17 27.5078 17Z" fill="#1E1E1E"/>
</svg>
