<svg width="44" height="45" viewBox="0 0 44 45" fill="none" xmlns="http://www.w3.org/2000/svg">
<path d="M44.0046 22.0103C44.0046 33.1265 35.767 42.3165 25.0657 43.8078C24.0651 43.9466 23.0414 44.0191 22.0023 44.0191C20.8028 44.0191 19.6249 43.9235 18.4778 43.7384C8.00167 42.0512 0 32.9646 0 22.0103C0 9.85467 9.85176 0 22.0038 0C34.1559 0 44.0076 9.85467 44.0076 22.0103H44.0046Z" fill="white"/>
<path d="M11.0577 11L20.3238 23.3922L11 33.4679H13.099L21.2628 24.6469L27.8583 33.4679H35L25.213 20.3786L33.8921 11H31.793L24.2754 19.1239L18.2008 11H11.0591H11.0577ZM14.1436 12.5462H17.4237L31.9113 31.9217H28.6312L14.1436 12.5462Z" fill="#272727"/>
</svg>
